HIERARCHY
ROOT Hips
{
	OFFSET 0.000000 0.000000 0.000000
	CHANNELS 6 Xposition Yposition Zposition Xrotation Yrotation Zrotation
	JOINT LeftUpLeg_virtual
	{
		OFFSET 0.000000 0.000000 0.000000
		CHANNELS 3 Xrotation Yrotation Zrotation
		JOINT LeftUpLeg
		{
			OFFSET 11.394100 -6.187798 -0.413800
			CHANNELS 3 Xrotation Yrotation Zrotation
			JOINT LeftLeg
			{
				OFFSET 0.430247 -32.302673 3.732800
				CHANNELS 3 Xrotation Yrotation Zrotation
				JOINT LeftFoot
				{
					OFFSET -0.430247 -48.264931 -6.423300
					CHANNELS 3 Xrotation Yrotation Zrotation
					JOINT LeftToeBase
					{
						OFFSET 4.230900 -16.068199 23.438400
						CHANNELS 3 Xrotation Yrotation Zrotation
						JOINT LeftToe_End
						{
							OFFSET 4.510700 0.695400 19.974600
							CHANNELS 3 Xrotation Yrotation Zrotation
							End Site
							{
								OFFSET 0 0 0
							}
						}
					}
				}
			}
		}
	}
	JOINT RightUpLeg_virtual
	{
		OFFSET 0.000000 0.000000 0.000000
		CHANNELS 3 Xrotation Yrotation Zrotation
		JOINT RightUpLeg
		{
			OFFSET -11.333700 -6.187798 -0.413800
			CHANNELS 3 Xrotation Yrotation Zrotation
			JOINT RightLeg
			{
				OFFSET -0.430392 -32.302628 3.733000
				CHANNELS 3 Xrotation Yrotation Zrotation
				JOINT RightFoot
				{
					OFFSET 0.430392 -48.264973 -6.423500
					CHANNELS 3 Xrotation Yrotation Zrotation
					JOINT RightToeBase
					{
						OFFSET -4.230900 -16.068199 23.438400
						CHANNELS 3 Xrotation Yrotation Zrotation
						JOINT RightToe_End
						{
							OFFSET -4.510700 0.695400 19.974600
							CHANNELS 3 Xrotation Yrotation Zrotation
							End Site
							{
								OFFSET 0 0 0
							}
						}
					}
				}
			}
		}
	}
	JOINT Spine_virtual
	{
		OFFSET 0.000000 0.000000 0.000000
		CHANNELS 3 Xrotation Yrotation Zrotation
		JOINT Spine
		{
			OFFSET -0.002400 12.777504 0.315300
			CHANNELS 3 Xrotation Yrotation Zrotation
			JOINT Spine1
			{
				OFFSET -0.002067 5.816869 0.032633
				CHANNELS 3 Xrotation Yrotation Zrotation
				JOINT Spine1_split
				{
					OFFSET -0.002067 5.816869 0.032633
					CHANNELS 3 Xrotation Yrotation Zrotation
					JOINT Spine2
					{
						OFFSET -0.002067 5.816869 0.032633
						CHANNELS 3 Xrotation Yrotation Zrotation
						JOINT Neck_virtual
						{
							OFFSET 0.000000 0.000000 0.000000
							CHANNELS 3 Xrotation Yrotation Zrotation
							JOINT Neck
							{
								OFFSET -0.003700 21.199493 -0.826900
								CHANNELS 3 Xrotation Yrotation Zrotation
								JOINT Head
								{
									OFFSET 0.000000 20.442200 4.834800
									CHANNELS 3 Xrotation Yrotation Zrotation
									JOINT HeadTop_End
									{
										OFFSET 0.000000 34.668396 4.968400
										CHANNELS 3 Xrotation Yrotation Zrotation
										End Site
										{
											OFFSET 0 0 0
										}
									}
								}
							}
						}
						JOINT LeftShoulder_virtual
						{
							OFFSET 0.000000 0.000000 0.000000
							CHANNELS 3 Xrotation Yrotation Zrotation
							JOINT LeftShoulder
							{
								OFFSET 3.288150 8.794197 -1.372250
								CHANNELS 3 Xrotation Yrotation Zrotation
								JOINT LeftShoulder_split
								{
									OFFSET 3.288150 8.794197 -1.372250
									CHANNELS 3 Xrotation Yrotation Zrotation
									JOINT LeftArm
									{
										OFFSET 11.953299 -2.279007 -0.146200
										CHANNELS 3 Xrotation Yrotation Zrotation
										JOINT LeftForeArm
										{
											OFFSET 18.448900 0.000000 0.000000
											CHANNELS 3 Xrotation Yrotation Zrotation
											JOINT LeftHand
											{
												OFFSET 29.527798 0.000000 0.000000
												CHANNELS 3 Xrotation Yrotation Zrotation
												End Site
												{
													OFFSET 0 0 0
												}
											}
										}
									}
								}
							}
						}
						JOINT RightShoulder_virtual
						{
							OFFSET 0.000000 0.000000 0.000000
							CHANNELS 3 Xrotation Yrotation Zrotation
							JOINT RightShoulder
							{
								OFFSET -3.249400 8.794197 -1.372250
								CHANNELS 3 Xrotation Yrotation Zrotation
								JOINT RightShoulder_split
								{
									OFFSET -3.249400 8.794197 -1.372250
									CHANNELS 3 Xrotation Yrotation Zrotation
									JOINT RightArm
									{
										OFFSET -11.953299 -2.279007 -0.146200
										CHANNELS 3 Xrotation Yrotation Zrotation
										JOINT RightForeArm
										{
											OFFSET -18.448900 0.000000 0.000000
											CHANNELS 3 Xrotation Yrotation Zrotation
											JOINT RightHand
											{
												OFFSET -29.527802 0.000000 0.000000
												CHANNELS 3 Xrotation Yrotation Zrotation
												End Site
												{
													OFFSET 0 0 0
												}
											}
										}
									}
								}
							}
						}
					}
				}
			}
		}
	}
}
MOTION
Frames: 10
Frame Time: 0.03333333
-0.417842 85.632568 0.299603 0.000000 0.000000 0.000000 11.705717 -49.521699 11.404204 -68.323065 24.999210 43.261687 44.537437 -19.585076 3.202421 7.537761 0.565777 -11.518780 -0.806936 -6.108590 0.920712 0.000000 0.000000 0.000000 11.705717 -49.521699 11.404204 -38.056455 1.958744 -24.202652 52.398496 1.036717 -6.829662 -21.041835 -1.757700 25.309575 0.528356 2.970032 1.471335 0.000000 0.000000 0.000000 11.705717 -49.521699 11.404204 10.978903 2.848590 -2.161168 6.100713 5.566512 -4.284673 0.000000 0.000000 0.000000 0.000000 0.000000 0.000000 -5.786926 6.328164 -3.046191 2.318706 9.363316 -0.265341 -4.146677 23.161948 -3.523373 0.000000 0.000000 0.000000 -5.786926 6.328164 -3.046191 -1.875340 -16.181702 -2.870485 0.000000 0.000000 0.000000 -10.644672 2.164714 -45.510585 -22.862378 -25.786268 -15.871714 0.000000 0.000000 0.000000 -5.786926 6.328164 -3.046191 -5.074595 24.343689 1.482626 0.000000 0.000000 0.000000 6.642390 -34.733701 57.610501 -21.031964 44.833853 19.961636 0.000000 0.000000 0.000000 
-0.677303 85.271034 1.182236 0.000000 0.000000 0.000000 23.078823 -51.206113 21.354641 -72.119564 23.623473 42.158783 45.966132 -17.657123 3.484339 5.731488 4.215740 -13.400689 -0.806936 -6.108591 0.920712 0.000000 0.000000 0.000000 23.078823 -51.206113 21.354641 -45.445900 5.522067 -23.364607 52.459903 1.050739 -6.881199 -20.432794 -1.084400 25.904534 0.528356 2.970034 1.471336 0.000000 0.000000 0.000000 23.078823 -51.206113 21.354641 1.931544 3.217449 -0.718330 3.783560 5.915582 -3.917735 0.000000 0.000000 0.000000 0.000000 0.000000 0.000000 -8.078008 6.563236 -2.613888 -5.256408 -4.314893 1.768454 -0.964760 7.189385 -0.581165 0.000000 0.000000 0.000000 -8.078008 6.563236 -2.613888 -2.338701 -9.267085 0.477312 0.000000 0.000000 0.000000 0.012348 1.464316 -49.562236 -21.267385 -30.655719 -14.789842 0.000000 0.000000 0.000000 -8.078008 6.563236 -2.613888 -5.306079 22.788508 3.827938 0.000000 0.000000 0.000000 7.662531 -36.585679 53.035517 -27.334617 45.566501 26.031905 0.000000 0.000000 0.000000 
-1.849606 84.953369 2.696396 0.000000 0.000000 0.000000 30.345427 -47.742916 28.699413 -75.233564 24.399891 39.026506 46.393333 -17.553064 3.457924 4.357915 5.729823 -13.828464 -0.806936 -6.108592 0.920712 0.000000 0.000000 0.000000 30.345427 -47.742916 28.699413 -48.496962 8.354673 -24.784038 52.400829 -0.264739 -6.938164 -21.452562 -3.120882 27.157139 0.528356 2.970032 1.471336 0.000000 0.000000 0.000000 30.345427 -47.742916 28.699413 -3.505138 1.857501 0.561389 3.307904 3.506680 -3.997016 0.000000 0.000000 0.000000 0.000000 0.000000 0.000000 -8.328920 4.248525 -2.971353 -11.046993 -19.653106 9.678655 2.777023 -9.457405 3.013809 0.000000 0.000000 0.000000 -8.328920 4.248525 -2.971353 -3.066419 -7.807667 4.730872 0.000000 0.000000 0.000000 10.311689 1.423234 -52.599454 -19.446783 -36.074173 -13.613603 0.000000 0.000000 0.000000 -8.328920 4.248525 -2.971353 -5.187632 18.961578 9.196352 0.000000 0.000000 0.000000 7.063281 -38.893546 43.103924 -47.779362 56.035828 50.040537 0.000000 0.000000 0.000000 
-3.780624 84.977921 4.214954 0.000000 0.000000 0.000000 33.837321 -43.621847 32.675058 -76.049608 25.880946 35.855881 45.324022 -18.129395 3.282740 3.338074 6.386133 -14.320084 -0.806936 -6.108591 0.920712 0.000000 0.000000 0.000000 33.837321 -43.621847 32.675058 -48.672659 9.511005 -26.702730 51.812951 -1.353951 -6.874031 -23.090288 -5.548948 27.736290 0.528356 2.970033 1.471336 0.000000 0.000000 0.000000 33.837321 -43.621847 32.675058 0.433931 -0.927722 1.550550 6.128181 -1.531156 -3.628612 0.000000 0.000000 0.000000 0.000000 0.000000 0.000000 -5.294942 -0.811232 -3.075678 -16.540982 -22.287157 11.383614 4.953945 -14.605714 8.980167 0.000000 0.000000 0.000000 -5.294942 -0.811232 -3.075678 -0.591734 -9.121298 1.921987 0.000000 0.000000 0.000000 1.513773 16.251834 -51.344602 -13.857620 -28.954736 -10.616546 0.000000 0.000000 0.000000 -5.294942 -0.811232 -3.075678 -3.519760 14.337028 12.950353 0.000000 0.000000 0.000000 -3.555361 -34.934867 30.547205 -76.330096 63.075144 82.817321 0.000000 0.000000 0.000000 
-7.228062 84.902306 5.527157 0.000000 0.000000 0.000000 35.127646 -41.693770 34.033176 -74.487728 26.098552 35.152914 44.295290 -19.200210 3.158745 1.840018 7.206924 -16.125990 -0.806936 -6.108590 0.920712 0.000000 0.000000 0.000000 35.127646 -41.693770 34.033176 -47.242130 8.315041 -27.118894 51.752490 -1.737190 -6.942975 -26.073673 -6.724993 27.100516 0.528356 2.970031 1.471336 0.000000 0.000000 0.000000 35.127646 -41.693770 34.033176 8.774024 -4.003518 2.690746 10.629023 -7.985803 -2.385281 0.000000 0.000000 0.000000 0.000000 0.000000 0.000000 -0.790394 -7.362270 -2.055568 -16.206376 -14.060715 9.226302 -2.007106 -10.698948 11.861746 0.000000 0.000000 0.000000 -0.790394 -7.362270 -2.055568 4.756259 -15.894784 -1.244019 0.000000 0.000000 0.000000 -16.882214 38.629019 -37.688847 -8.098494 -17.855660 -7.600337 0.000000 0.000000 0.000000 -0.790394 -7.362270 -2.055568 -1.565905 10.918279 17.212297 0.000000 0.000000 0.000000 -15.854092 -21.529776 26.362341 -86.261587 67.025452 92.302801 0.000000 0.000000 0.000000 
-10.346230 84.742493 6.282841 0.000000 0.000000 0.000000 36.354887 -41.669891 34.178752 -73.238028 25.059401 36.624468 43.728725 -20.211133 3.128237 0.569955 8.247110 -18.130384 -0.806936 -6.108590 0.920712 0.000000 0.000000 0.000000 36.354887 -41.669891 34.178752 -46.152650 6.430996 -25.712657 51.595106 -1.782466 -6.998795 -28.549269 -6.719494 26.055299 0.528356 2.970031 1.471336 0.000000 0.000000 0.000000 36.354887 -41.669891 34.178752 14.281664 -6.125071 3.571459 16.098167 -12.559843 -0.598837 0.000000 0.000000 0.000000 0.000000 0.000000 0.000000 4.727407 -11.847429 -0.297999 -9.105090 -7.678680 5.836510 -15.364058 -10.185848 14.338983 0.000000 0.000000 0.000000 4.727407 -11.847429 -0.297999 7.970237 -17.672034 -0.634214 0.000000 0.000000 0.000000 -32.617401 42.585451 -23.741545 -3.428573 -12.196215 -4.806344 0.000000 0.000000 0.000000 4.727407 -11.847429 -0.297999 -0.180000 10.283488 20.191139 0.000000 0.000000 0.000000 -23.570735 -4.571926 29.572247 -64.647256 68.981168 65.755590 0.000000 0.000000 0.000000 
-12.089439 84.176262 5.918179 0.000000 0.000000 0.000000 34.061856 -41.989845 33.336227 -70.908620 25.533098 37.096991 43.294841 -21.321322 3.035531 0.473808 8.394126 -19.273192 -0.806936 -6.108592 0.920712 0.000000 0.000000 0.000000 34.061856 -41.989845 33.336227 -44.958703 5.763574 -26.157096 53.986157 -1.514466 -7.157807 -30.873865 -6.725644 25.209528 0.528356 2.970031 1.471336 0.000000 0.000000 0.000000 34.061856 -41.989845 33.336227 16.164790 -6.994474 3.352926 20.306615 -12.909530 -0.708276 0.000000 0.000000 0.000000 0.000000 0.000000 0.000000 9.038797 -11.952683 -0.910519 -8.475209 -5.132180 3.906988 -20.524696 -9.347969 13.389724 0.000000 0.000000 0.000000 9.038797 -11.952683 -0.910519 7.857623 -15.510578 0.857442 0.000000 0.000000 0.000000 -39.549237 27.778311 -22.150833 0.460937 -12.644681 -2.316812 0.000000 0.000000 0.000000 9.038797 -11.952683 -0.910519 -0.079120 10.824655 21.607812 0.000000 0.000000 0.000000 -24.893077 1.414284 30.835633 -50.605319 64.900095 49.137638 0.000000 0.000000 0.000000 
-13.349252 83.758713 5.400143 0.000000 0.000000 0.000000 28.092836 -42.008734 30.781357 -66.415434 27.542487 36.266549 42.142892 -22.913797 2.859698 0.996295 7.520509 -19.675811 -0.806936 -6.108591 0.920712 0.000000 0.000000 0.000000 28.092836 -42.008734 30.781357 -41.377928 4.467722 -28.605049 56.358667 -1.007510 -7.283090 -33.184573 -6.907861 24.495603 0.528356 2.970032 1.471336 0.000000 0.000000 0.000000 28.092836 -42.008734 30.781357 17.901794 -7.311219 3.267338 23.297523 -10.887590 -1.499083 0.000000 0.000000 0.000000 0.000000 0.000000 0.000000 11.952274 -9.911137 -2.435668 -11.145673 -3.498637 -1.030159 -10.874141 -7.113167 8.428482 0.000000 0.000000 0.000000 11.952274 -9.911137 -2.435668 7.726064 -16.727466 -0.837819 0.000000 0.000000 0.000000 -45.095470 4.212421 -22.292657 3.286374 -13.461257 -0.509121 0.000000 0.000000 0.000000 11.952274 -9.911137 -2.435668 -0.023740 11.101608 20.238989 0.000000 0.000000 0.000000 -20.403558 -1.917475 31.086291 -50.216227 63.400220 47.479698 0.000000 0.000000 0.000000 
-14.229147 83.440117 4.940971 0.000000 0.000000 0.000000 24.653047 -41.962343 29.651419 -63.377257 28.783995 35.470590 41.126068 -23.837227 2.729797 1.454645 7.208341 -20.161527 -0.806936 -6.108590 0.920712 0.000000 0.000000 0.000000 24.653047 -41.962343 29.651419 -39.594197 3.717435 -30.296472 58.050481 -0.468578 -7.351000 -34.713535 -6.931264 23.857243 0.528356 2.970031 1.471336 0.000000 0.000000 0.000000 24.653047 -41.962343 29.651419 18.678354 -7.644558 2.947604 27.041680 -9.988339 -1.799549 0.000000 0.000000 0.000000 0.000000 0.000000 0.000000 15.583111 -8.911978 -3.770875 -13.934561 0.996331 -0.717991 -2.351007 -1.837007 5.623806 0.000000 0.000000 0.000000 15.583111 -8.911978 -3.770875 6.379608 -18.740053 1.186689 0.000000 0.000000 0.000000 -45.361199 -10.884693 -28.073047 3.493931 -15.590393 -0.475384 0.000000 0.000000 0.000000 15.583111 -8.911978 -3.770875 -0.208176 12.255803 21.252011 0.000000 0.000000 0.000000 -19.035140 -3.307533 29.671803 -49.092476 63.227348 45.211997 0.000000 0.000000 0.000000 
-14.523901 83.277588 4.491035 0.000000 0.000000 0.000000 23.465562 -42.874016 29.018677 -62.277392 28.941168 36.087851 40.910101 -24.226608 2.691251 1.641303 7.460740 -20.575911 -0.806936 -6.108589 0.920712 0.000000 0.000000 0.000000 23.465562 -42.874016 29.018677 -39.426280 3.484323 -30.410922 59.053419 0.162676 -7.363827 -35.221588 -6.418650 23.305919 0.528356 2.970034 1.471336 0.000000 0.000000 0.000000 23.465562 -42.874016 29.018677 18.941826 -7.548781 2.824368 30.197021 -8.814367 -1.249313 0.000000 0.000000 0.000000 0.000000 0.000000 0.000000 18.780088 -7.608271 -3.913838 -13.967094 5.511038 -0.388692 2.394461 2.571366 4.674161 0.000000 0.000000 0.000000 18.780088 -7.608271 -3.913838 3.806160 -20.816183 2.574412 0.000000 0.000000 0.000000 -43.566642 -23.379415 -34.385300 2.022609 -21.267081 -0.316740 0.000000 0.000000 0.000000 18.780088 -7.608271 -3.913838 -0.362053 12.668193 22.685087 0.000000 0.000000 0.000000 -19.496007 -4.814938 26.067694 -50.939206 65.432037 46.330802 0.000000 0.000000 0.000000 
